<svg width="133" height="35" viewBox="0 0 153 35" fill="none" xmlns="http://www.w3.org/2000/svg">
<path d="M0.159837 19.2888C0.159837 16.3591 0.81406 13.7422 2.1225 11.4382C3.45939 9.10572 5.26562 7.2995 7.54117 6.0195C9.84517 4.71106 12.4194 4.05683 15.2638 4.05683C18.5918 4.05683 21.5074 4.91017 24.0105 6.61683C26.5136 8.3235 28.263 10.6844 29.2585 13.6995H22.3892C21.7065 12.2773 20.7394 11.2106 19.4878 10.4995C18.2647 9.78839 16.8425 9.43283 15.2212 9.43283C13.4861 9.43283 11.9358 9.84528 10.5705 10.6702C9.23362 11.4666 8.18117 12.6044 7.41317 14.0835C6.67362 15.5626 6.30384 17.2977 6.30384 19.2888C6.30384 21.2515 6.67362 22.9866 7.41317 24.4942C8.18117 25.9733 9.23362 27.1253 10.5705 27.9502C11.9358 28.7466 13.4861 29.1448 15.2212 29.1448C16.8425 29.1448 18.2647 28.7893 19.4878 28.0782C20.7394 27.3386 21.7065 26.2577 22.3892 24.8355H29.2585C28.263 27.8791 26.5136 30.2542 24.0105 31.9608C21.5358 33.6391 18.6203 34.4782 15.2638 34.4782C12.4194 34.4782 9.84517 33.8382 7.54117 32.5582C5.26562 31.2497 3.45939 29.4435 2.1225 27.1395C0.81406 24.8355 0.159837 22.2186 0.159837 19.2888ZM32.8245 22.3182C32.8245 19.9288 33.2938 17.8097 34.2325 15.9608C35.1996 14.1119 36.4938 12.6897 38.1152 11.6942C39.7649 10.6986 41.5996 10.2008 43.6192 10.2008C45.3827 10.2008 46.9187 10.5564 48.2272 11.2675C49.5641 11.9786 50.6307 12.8746 51.4272 13.9555V10.5848H57.4432V34.2222H51.4272V30.7662C50.6592 31.8755 49.5925 32.7999 48.2272 33.5395C46.8903 34.2506 45.3401 34.6062 43.5765 34.6062C41.5854 34.6062 39.7649 34.0942 38.1152 33.0702C36.4938 32.0462 35.1996 30.6097 34.2325 28.7608C33.2938 26.8835 32.8245 24.7359 32.8245 22.3182ZM51.4272 22.4035C51.4272 20.9528 51.1427 19.7155 50.5738 18.6915C50.0049 17.6391 49.2369 16.8426 48.2698 16.3022C47.3027 15.7333 46.2645 15.4488 45.1552 15.4488C44.0458 15.4488 43.0218 15.7191 42.0832 16.2595C41.1445 16.7999 40.3765 17.5964 39.7792 18.6488C39.2103 19.6728 38.9258 20.8959 38.9258 22.3182C38.9258 23.7404 39.2103 24.9919 39.7792 26.0728C40.3765 27.1253 41.1445 27.9359 42.0832 28.5048C43.0503 29.0737 44.0743 29.3582 45.1552 29.3582C46.2645 29.3582 47.3027 29.0879 48.2698 28.5475C49.2369 27.9786 50.0049 27.1822 50.5738 26.1582C51.1427 25.1057 51.4272 23.8542 51.4272 22.4035ZM70.2318 15.4915V26.9262C70.2318 27.7226 70.4167 28.3057 70.7865 28.6755C71.1847 29.0168 71.839 29.1875 72.7492 29.1875H75.5225V34.2222H71.7678C66.7332 34.2222 64.2158 31.7759 64.2158 26.8835V15.4915H61.3998V10.5848H64.2158V4.7395H70.2318V10.5848H75.5225V15.4915H70.2318ZM78.2828 22.3182C78.2828 19.9288 78.7522 17.8097 79.6908 15.9608C80.658 14.1119 81.9522 12.6897 83.5735 11.6942C85.2233 10.6986 87.058 10.2008 89.0775 10.2008C90.8411 10.2008 92.3771 10.5564 93.6855 11.2675C95.0224 11.9786 96.0891 12.8746 96.8855 13.9555V10.5848H102.902V34.2222H96.8855V30.7662C96.1175 31.8755 95.0508 32.7999 93.6855 33.5395C92.3486 34.2506 90.7984 34.6062 89.0348 34.6062C87.0437 34.6062 85.2233 34.0942 83.5735 33.0702C81.9522 32.0462 80.658 30.6097 79.6908 28.7608C78.7522 26.8835 78.2828 24.7359 78.2828 22.3182ZM96.8855 22.4035C96.8855 20.9528 96.6011 19.7155 96.0322 18.6915C95.4633 17.6391 94.6953 16.8426 93.7282 16.3022C92.7611 15.7333 91.7228 15.4488 90.6135 15.4488C89.5042 15.4488 88.4802 15.7191 87.5415 16.2595C86.6028 16.7999 85.8348 17.5964 85.2375 18.6488C84.6686 19.6728 84.3842 20.8959 84.3842 22.3182C84.3842 23.7404 84.6686 24.9919 85.2375 26.0728C85.8348 27.1253 86.6028 27.9359 87.5415 28.5048C88.5086 29.0737 89.5326 29.3582 90.6135 29.3582C91.7228 29.3582 92.7611 29.0879 93.7282 28.5475C94.6953 27.9786 95.4633 27.1822 96.0322 26.1582C96.6011 25.1057 96.8855 23.8542 96.8855 22.4035ZM114.709 2.64883V34.2222H108.736V2.64883H114.709ZM123.64 7.76883C122.587 7.76883 121.706 7.44172 120.995 6.7875C120.312 6.10483 119.971 5.26572 119.971 4.27017C119.971 3.27461 120.312 2.44972 120.995 1.7955C121.706 1.11283 122.587 0.771499 123.64 0.771499C124.692 0.771499 125.56 1.11283 126.243 1.7955C126.954 2.44972 127.309 3.27461 127.309 4.27017C127.309 5.26572 126.954 6.10483 126.243 6.7875C125.56 7.44172 124.692 7.76883 123.64 7.76883ZM126.584 10.5848V34.2222H120.611V10.5848H126.584ZM145.542 34.2222L140.678 26.8835L136.368 34.2222H129.968L137.691 22.3608L129.883 10.5848H136.624L141.446 17.8808L145.798 10.5848H152.198L144.432 22.3608L152.283 34.2222H145.542Z" fill="white"/>
</svg>
